/* XPM */
static char *lyx[] = {
/* columns rows colors chars-per-pixel */
"48 48 188 2 ",
"   c #CB3300",
".  c #CD3C00",
"X  c #D44D00",
"o  c #D55D3B",
"O  c #DE7032",
"+  c #CB4E40",
"@  c #CC5042",
"#  c #CE5548",
"$  c #CC6259",
"%  c #CC635A",
"&  c #D0675F",
"*  c #D26B63",
"=  c #CB706A",
"-  c #CA7D77",
";  c #D37B74",
":  c #D57D76",
">  c #D67E77",
",  c #FFBF00",
"<  c #FBBC35",
"1  c #DD8154",
"2  c #E99C4C",
"3  c #F5B248",
"4  c #EBA45F",
"5  c #CE817C",
"6  c #E5AF7C",
"7  c #FBC040",
"8  c #F7C057",
"9  c #FCC65F",
"0  c #FEC762",
"q  c #FFC863",
"w  c #F3C269",
"e  c #F4C26A",
"r  c #F6C46D",
"t  c #FECB76",
"y  c #0062C5",
"u  c #0064C9",
"i  c #0067CE",
"p  c #0069D2",
"a  c #006CD8",
"s  c #006FDF",
"d  c #0072E5",
"f  c #0075EB",
"g  c #0078F0",
"h  c #007AF5",
"j  c #007BF7",
"k  c #007CF8",
"l  c #007DFB",
"z  c #007EFD",
"x  c #007FFE",
"c  c #007FFF",
"v  c #5778C3",
"b  c #4481E8",
"n  c #5A88E2",
"m  c #4087FB",
"M  c #468BFE",
"N  c #488CFF",
"B  c #578EF7",
"V  c #598FF8",
"C  c #5F94FC",
"Z  c #6095FD",
"A  c #6397FF",
"S  c #D48883",
"D  c #D68A85",
"F  c #D98D88",
"G  c #CB9390",
"H  c #CC9490",
"J  c #CE9793",
"K  c #D59490",
"L  c #DD9B97",
"P  c #CBA6A4",
"I  c #CCA7A4",
"U  c #CEA8A6",
"Y  c #DFA6A3",
"T  c #D7B0AE",
"R  c #D9B2AF",
"E  c #CFB8B6",
"W  c #DCB4B2",
"Q  c #E0A7A4",
"!  c #E6BCBA",
"~  c #ECC385",
"^  c #F1C88A",
"/  c #FFD188",
"(  c #E8C490",
")  c #E7C89C",
"_  c #FFD596",
"`  c #DCCBB5",
"'  c #DACDBD",
"]  c #E1C7A4",
"[  c #FBD6A0",
"{  c #E1C0BE",
"}  c #E8D2B4",
"|  c #ECD5B7",
" . c #EDD6B8",
".. c #FADDB7",
"X. c #96A7D6",
"o. c #A4ADC8",
"O. c #ADB4CA",
"+. c #ACB8DD",
"@. c #B5BEDC",
"#. c #84A1EB",
"$. c #87A4EE",
"%. c #90A7E8",
"&. c #90A8E9",
"*. c #84A7FA",
"=. c #88AAFF",
"-. c #9DB5F7",
";. c #9FB7F9",
":. c #ADBAE0",
">. c #A9B8E7",
",. c #A4BCFF",
"<. c #B4C0E5",
"1. c #B6C7F8",
"2. c #B7C8FA",
"3. c #BACBFF",
"4. c #C4C7C3",
"5. c #CAC8C1",
"6. c #D7CEC4",
"7. c #DBC8C7",
"8. c #D3CDCC",
"9. c #D9D0C5",
"0. c #D7D0CF",
"q. c #C8CBD4",
"w. c #CCCED7",
"e. c #CACFDF",
"r. c #CFD1D7",
"t. c #D6D2D2",
"y. c #D3D4D9",
"u. c #DADAD9",
"i. c #DBDADA",
"p. c #DDDCDC",
"a. c #DFDDDD",
"s. c #DFDFDD",
"d. c #EAC6C4",
"f. c #E9CDCB",
"g. c #EACECC",
"h. c #ECCFCD",
"j. c #EDCFCE",
"k. c #E1D7CC",
"l. c #F2DEC5",
"z. c #E0D7D7",
"x. c #EFD7D6",
"c. c #E2D9D9",
"v. c #E5DCDB",
"b. c #ECDCDB",
"n. c #EDDCDB",
"m. c #F3E0C7",
"M. c #FEE5C3",
"N. c #F2E2CF",
"B. c #FFE9CE",
"V. c #EBE4DC",
"C. c #F6E9DA",
"Z. c #FEF0DF",
"A. c #C2C9E0",
"S. c #DDDFE4",
"D. c #D2D7E9",
"F. c #C7D1F1",
"G. c #CEDAFF",
"H. c #DCE2F9",
"J. c #DFE6FE",
"K. c gray88",
"L. c #E1E1E1",
"P. c #E2E2E2",
"I. c gray89",
"U. c #E4E4E4",
"Y. c gray90",
"T. c #E6E6E6",
"R. c #E7E6E6",
"E. c #E7E7E7",
"W. c #EBE1E1",
"Q. c #EEE3E2",
"!. c #ECE7E7",
"~. c #ECE8E4",
"^. c gray91",
"/. c #E9E9E9",
"(. c #EAEAEA",
"). c gray92",
"_. c #EBECED",
"`. c #ECECEC",
"'. c #EEEDEC",
"]. c #F3E6E6",
"[. c #F5E8E7",
"{. c #F1ECE7",
"}. c #F6E8E8",
"|. c #FFF1E0",
" X c #E3E7F7",
".X c #E0E7FF",
"XX c #ECEEF8",
"oX c None",
/* pixels */
"oXoXoXoXoXoXoXoXoXoXoXoXoXoXoXoXoXoXoXoXoXoXoXoXoXoXoXoXoXoXoXoXoXoXoXoXoXoXoXoXoXoXoXoXoXoXoXoX",
"oXoXoXoXoXoXoXoXoXoXoXoXoXoXoXoXoXoXoXoXoXoXoXoXoXoXoXoXoXoXoXoXoXoXoXoXoXoXoXoXoXoXoXoXoXoXoXoX",
"oXoXoXoXoXoXoXoXoXoXoXoXoXoXoXoXoXoXoXoXoXoXoXoXoXoXoXoXoXoXoXoXoXoXoXoXoXoXoXoXoXoXoXoXoXoXoXoX",
"oXoXoXoXoXoXoXoXoXoXoXoXoXoXoXoXoXoXoXoXoXoXoXoXoXoXoXoXoXoXoXoXoXoXoXoXoXoXoXoXoXoXoXoXoXoXoXoX",
"oXoXoXoXoXoXoXoXoXoXoXoXoXoXoXoXoXoXoXoXoXoXoXoXoXoXoXoXoXoXoXoXoXoXoXoXoXoXoXoXoXoXoXoXoXoXoXoX",
"oXoXoXoXoXoXoXoXoXoXoXoXoXoXoXoXoXoXoXoXoXoXoXoXoXoXoXoXoXoXoXoXoXoXoXoXoXoXoXoXoXoXoXoXoXoXoXoX",
"oXoXoXoXoXoXoXoXoXoXoXoXoXoXoXoXoXoXoXoXoXoXoXoXoXoXoXoXoXoXoXoXoXoXoXoXoXoXoXoXoXoXoXoXoXoXoXoX",
"oXoXoXoXoXoXoXoXoXoXoXoXoXoXoXoXoXoXoXoXoXoXoXoXoXoXoXoXoXoXoXoXoXoXoXoXoXoXoXoXoXoXoXoXoXoXoXoX",
"oXoXoXoXoXoXoXoXoXoXoXoXoXoXoXoXoXoXoXoXoXoXoXoXoXoXoXoXoXoXoXoXoXoXoXoXoXoXoXoXoXoXoXoXoXoXoXoX",
"oXoXoXoXoXoXoXoXoXoXoXoXoXoXoXoXoXoXoXoXoXoXoXoXoXoXoXoXoXoXoXoXoXoXoXoXoXoXoXoXoXoXoXoXoXoXoXoX",
"oXoXoXoXoXoXoXoXoXoXoXoXoXoXoXoXoXoXoXoXoXoXoXoXoXoXoXoXoXoXoXoXoXoXoXoXoXoXoXoXoXoXoXoXoXoXoXoX",
"oXoXoXoXoXoXoXoXoXoXoXoXoXoXoXoXoXoXoXoXoXoXoXoXoXoXoXoXoXoXv.K W { b.].oXoXoXoXoXoXoXoXoXoXoXoX",
"oXoXoXoXoXoXoXoXoXoXoXoXoXoXoXoXoXoXoXoXoXoXoXoXoXoXoXoXoXoX(.$           g.oXoXoXoXW.oXoXoXoXoX",
"oXoXoXoXoXoXoXoXJ.oXoXoXoXoXoXoXoXoXoXoXoXoXoXoXoXoXoXoXoX(.U.I           ; oXoX`.7.      : F }.",
"oXoXoXoXoXD.-.M c oXoXoXoXoXoXoXoXoXoXoXoXoXoXoXoXoXoXoXoX`.U.i.+           z.U.0.@         : oX",
"oXoX(.A.V c c c c 3.oXoXoXoXoXoXoXoXoXoXoXoXoXoXoXoXoXoXoXoXU.P.P           J a.=         * oXoX",
"oX`.U.+.c c c c c Z oXoXoXoXoXoXoXoXoXoXoXoXoXoXoXoXoXoXoXoX`.Y.i.+           G         # [.oXoX",
"oX`.U.y.c c c c c c .XoXoXoXoXoXoXoXl.m.C.oXoXoXoXoXoXoXoXoXoXE.P.G                     j.oXoXoX",
"oXoXU.P.#.c c c c c ,.oXoXoXoXoXoX`.} , , , q _ Z.oXoXoXoXoXoX`.P.t.                  ! oXoXoXoX",
"oXoXE.P.@.c c c c c N oXoXoXoXoXoXU.s., , , , , t oXoXoXoX~.| k.a.K.G               Q oXoXoXoXoX",
"oXoX`.U.P.m c c c c c G.oXoXoXoXoXE.P.~ , , , , , {.oX`.(.r , , , 8 6             : oXoXoXoXoXoX",
"oXoXoXU.P.%.c c c c c =.oXoXoXoXoX(.P.' , , , , ,  .^.U.) , , , , , o             L oXoXoXoXoXoX",
"oXoXoX(.I.w.c c c c c c oXoXoXoXoX(.P.P.3 , , , , ^ I.` , , , , , 1                 oXoXoXoXoXoX",
"oXoXoX`.U.P.V c c c c c 2.oXoXoXoX(.r.O.^ , , , , , 9.7 , , , , 2                   Q oXoXoXoXoX",
"oXoXoXoX(.P.+.c c c c c C oXoXS.<.n p y 5., , , , , 7 , , , , 3                       oXoXoXoXoX",
"oXoXoXoX(.P.y.c c c c c c >.$.c k f a u o.8 , , , , , , , , < .         I G           ! oXoXoXoX",
"oXoXoXoXoXU.P.#.c c c c c c c c k g s i v ] , , , , , , , , X         5 I.8.          # oXoXoXoX",
"oXoXoXoXoX^.P.@.c c c c c c c c c j d p y 4., , , , , , , O         * U.U.P.-           d.oXoXoX",
"oXoXoXoXoX`.U.P.m c c c c c c c c j b X.q.P.w , , , , , 4         # Q.oX(.U.E           * oXoXoX",
"oXoXoXoXoXoXU.P.&.c c c c c c c *.F.`.(.U.s.7 , , , , 9 `.oX!.b.g.x.oXoXoX`.U.$           j.oXoX",
"oXoXoXoXoXoX`.^.e.c c c c Z 1.XXoXoXoX(.I.i., , , , , [ oXoXoXoXoXoXoXoXoXoXoXc.T R S D   * oXoX",
"oXoXoXoXoXoXoXoXoXC M ;.H.oXoXoXoXoXoX(.P.6., , , , , M.oXoXoXoXoXoXoXoXoXoXoXoXoXoXoXoXoXoXoXoX",
"oXoXoXoXoXoXoXoXoX XoXoXoXoXoXoXoXoXoXU.P.] , , , , , |.oXoXoXoXoXoXoXoXoXoXoXoXoXoXoXoXoXoXoXoX",
"oXoXoXoXoXoXoXoXoXoXoXoXoXoXoXoXoXoXoX(.P.( , , , , , oXoXoXoXoXoXoXoXoXoXoXoXoXoXoXoXoXoXoXoXoX",
"oXoXoXoXoXoXoXoXoXoXoXoXoXoXoXoXoXoXoXU.U.w , , , , q oXoXoXoXoXoXoXoXoXoXoXoXoXoXoXoXoXoXoXoXoX",
"oXoXoXoXoXoXoXoXoXoXoXoXoXoXoXoXoXoXoX`.(., , , , , / oXoXoXoXoXoXoXoXoXoXoXoXoXoXoXoXoXoXoXoXoX",
"oXoXoXoXoXoXoXoXoXoXoXoXoXoXoXoXoXoXoXoXoXoXV.N..._ B.oXoXoXoXoXoXoXoXoXoXoXoXoXoXoXoXoXoXoXoXoX",
"oXoXoXoXoXoXoXoXoXoXoXoXoXoXoXoXoXoXoXoXoXoXoXoXoXoXoXoXoXoXoXoXoXoXoXoXoXoXoXoXoXoXoXoXoXoXoXoX",
"oXoXoXoXoXoXoXoXoXoXoXoXoXoXoXoXoXoXoXoXoXoXoXoXoXoXoXoXoXoXoXoXoXoXoXoXoXoXoXoXoXoXoXoXoXoXoXoX",
"oXoXoXoXoXoXoXoXoXoXoXoXoXoXoXoXoXoXoXoXoXoXoXoXoXoXoXoXoXoXoXoXoXoXoXoXoXoXoXoXoXoXoXoXoXoXoXoX",
"oXoXoXoXoXoXoXoXoXoXoXoXoXoXoXoXoXoXoXoXoXoXoXoXoXoXoXoXoXoXoXoXoXoXoXoXoXoXoXoXoXoXoXoXoXoXoXoX",
"oXoXoXoXoXoXoXoXoXoXoXoXoXoXoXoXoXoXoXoXoXoXoXoXoXoXoXoXoXoXoXoXoXoXoXoXoXoXoXoXoXoXoXoXoXoXoXoX",
"oXoXoXoXoXoXoXoXoXoXoXoXoXoXoXoXoXoXoXoXoXoXoXoXoXoXoXoXoXoXoXoXoXoXoXoXoXoXoXoXoXoXoXoXoXoXoXoX",
"oXoXoXoXoXoXoXoXoXoXoXoXoXoXoXoXoXoXoXoXoXoXoXoXoXoXoXoXoXoXoXoXoXoXoXoXoXoXoXoXoXoXoXoXoXoXoXoX",
"oXoXoXoXoXoXoXoXoXoXoXoXoXoXoXoXoXoXoXoXoXoXoXoXoXoXoXoXoXoXoXoXoXoXoXoXoXoXoXoXoXoXoXoXoXoXoXoX",
"oXoXoXoXoXoXoXoXoXoXoXoXoXoXoXoXoXoXoXoXoXoXoXoXoXoXoXoXoXoXoXoXoXoXoXoXoXoXoXoXoXoXoXoXoXoXoXoX",
"oXoXoXoXoXoXoXoXoXoXoXoXoXoXoXoXoXoXoXoXoXoXoXoXoXoXoXoXoXoXoXoXoXoXoXoXoXoXoXoXoXoXoXoXoXoXoXoX",
"oXoXoXoXoXoXoXoXoXoXoXoXoXoXoXoXoXoXoXoXoXoXoXoXoXoXoXoXoXoXoXoXoXoXoXoXoXoXoXoXoXoXoXoXoXoXoXoX"
};
